<?xml version="1.0" encoding="utf-8"?>
<!-- Generator: Adobe Illustrator 26.0.1, SVG Export Plug-In . SVG Version: 6.00 Build 0)  -->
<svg version="1.1" id="Layer_1" xmlns="http://www.w3.org/2000/svg" xmlns:xlink="http://www.w3.org/1999/xlink" x="0px" y="0px"
	 viewBox="0 0 384 384" style="enable-background:new 0 0 384 384;" xml:space="preserve">
<path fill="#D0BC57" d="M336,324c5.9,0,11.3,0,16.6,0c5.2,0,7.3,2.1,7.4,7.2c0,7.5,0.1,15,0,22.5c-0.1,13.8-10.5,24.2-24.3,24.2
	c-28.3,0.1-56.5,0-84.8,0H86.3c-16.6,0-26.4-9.8-26.4-26.3c0-87.5,0-175,0-262.5V84H35.4c-10.8,0-11.5-0.7-11.5-11.4
	c0-13.8,0-27.5,0-41.2C23.9,16.1,34.1,6,49.4,6C136.2,6,223.1,6,310,6c16,0,26,9.9,26,25.9c0,95.6,0,191.2,0,286.9L336,324z
	 M324,324V32.3c0-9.9-4.5-14.3-14.5-14.3H69.9c0.7,5.4,1.9,10.7,1.9,15.9c0.2,24.2,0.1,48.5,0.1,72.7c0,82,0,164,0,246
	c0,7.9,5,13.4,12,13.4s12-5.5,12-13.4c0-6.5,0-13,0-19.5c0-7.5,1.6-9.1,8.9-9.1L324,324L324,324z M348,336.3H108.2
	c-1,10,1.7,20.1-3.3,29.8h229.3c0.9,0,1.8,0,2.6,0c6-0.4,10.8-5.2,11.1-11.2C348.2,348.7,348,342.6,348,336.3L348,336.3z M59.9,71.8
	c0-13.9,0-27.4,0-40.9c0-7.6-5.1-13-12.1-13S35.9,23.4,35.9,31c0,12.6,0,25.2,0,37.9c0,1,0.1,1.9,0.2,2.9L59.9,71.8z"/>
<path fill="#D0BC57" d="M248.9,123.4c-11.2,6-21.3,11.3-31.2,16.9c-1,0.6-1.6,2.8-1.7,4.3c-0.2,9.4-7.1,17.3-16.3,18.7c-9.2,1.3-17.9-4.2-20.7-13
	c-2.5-7.6,0.1-15.9,6.5-20.8c6.4-5,15.3-5.3,22-0.7c2.1,1.4,3.4,1.5,5.6,0.3c9.6-5.3,19.3-10.5,29.2-15.8
	c-9.1-12.5-20.8-20.3-35.6-22.5c-33.3-4.9-61.2,18.5-62.7,52.1c-0.2,4.9-2.3,7-7.2,7c-15.2,0-30.5,0-45.7,0c-4.9,0-7-2.3-7.1-7.2
	C83.6,89.8,124.1,41.4,176.4,32c62.1-11,119,26.4,132.9,87.7c1.7,7.5,2,15.3,2.6,23c0.4,4.8-2.1,7.1-7,7.2c-15.2,0-30.5,0-45.8,0
	c-4.9,0-6.7-2.2-7.3-7C251.2,136.7,250,130.4,248.9,123.4z M121.6,76.8c-15.3,15.4-25.7,43.3-25,61h35.6
	c1.3-13.1,6.4-25.4,14.7-35.6L121.6,76.8z M130.7,67.5l25.6,25.4c10.2-8.2,22.5-13.3,35.5-14.7V42.3
	C169.2,43.6,147.7,52.5,130.7,67.5z M240.1,92.4l25-25.1c-17.3-14.9-37.5-23.5-60.9-25v35.2c6.6,1.9,13,3.2,18.9,5.7
	S234.5,89.3,240.1,92.4z M299.8,137.8c-1.7-23.5-10.1-43.8-25.1-61l-25.5,25.6c1,1.4,2.4,3.1,3.8,5l20.1-10.8l5.6,10.5l-19.7,10.7
	c1.8,6.9,3.4,13.4,5.1,19.9H299.8z M198,138c-3.3,0-6,2.7-6,6s2.7,6,6,6s6-2.7,6-6c0,0,0-0.1,0-0.1C203.9,140.6,201.3,138,198,138z"
	/>
<path fill="#D0BC57" d="M132.3,174c13.3,0,26.5,0,39.8,0c5.9,0,7.9,2,7.9,7.9c0,26.8,0,53.5,0,80.3c0,5.9-2,7.9-7.9,7.9H91.8c-5.9,0-7.9-2-7.9-7.9
	c0-26.7,0-53.5,0-80.3c0-5.9,2-7.9,7.9-7.9C105.3,174,118.8,174,132.3,174z M167.8,186.3H96.1v71.5h5.7c0.6-10.7,5.2-19,13.8-25
	c-6.7-13.4-5.6-23.1,3.1-30.1c7.7-6.2,18.7-6.2,26.4,0c8.8,7.1,9.8,16.6,3.5,29.4c3.3,4,7.1,7.5,9.4,11.7s3.3,9.2,4.9,14.1h4.9
	V186.3z M149.8,257.8c-0.4-10.6-8.5-18.2-18.6-17.8c-9.5,0.3-17.4,8.4-17,17.8H149.8z M140.9,218.8c-0.1-5-4.1-8.9-9.1-8.9
	s-8.9,4.1-8.9,9.1c0.1,4.9,4.1,8.9,9.1,8.9C137,227.9,141,223.8,140.9,218.8L140.9,218.8z"/>
<path fill="#D0BC57" d="M252.1,210c-17.4,0-34.8,0-52.1,0c-6.1,0-8-2-8-8.1c0-6.8,0-13.5,0-20.3c0-5.5,2.1-7.6,7.4-7.6c35.1,0,70.3,0,105.4,0
	c5.1,0,7.2,2.2,7.2,7.4c0,7.1,0,14.2,0,21.4c0,5.1-2.2,7.2-7.4,7.2C287.1,210,269.6,210,252.1,210z M204.1,197.7h95.7v-11.6h-95.6
	L204.1,197.7z"/>
<path fill="#D0BC57" d="M90.1,305.7v-11.5h221.7v11.5H90.1z"/>
<path fill="#D0BC57" d="M311.7,257.8H192.2v-11.5h119.5V257.8z"/>
<path fill="#D0BC57" d="M311.8,270.2v11.6H192.3v-11.6H311.8z"/>
<path fill="#D0BC57" d="M216.2,233.7v-11.5h95.6v11.5H216.2z"/>
</svg>
